<?xml version="1.0" encoding="UTF-8"?>
<svg xmlns="http://www.w3.org/2000/svg" xmlns:xlink="http://www.w3.org/1999/xlink" width="375pt" height="374.999991pt" viewBox="0 0 375 374.999991" version="1.2">
<defs>
<clipPath id="clip1">
  <path d="M 30.109375 0 L 345.089844 0 L 345.089844 375 L 30.109375 375 Z M 30.109375 0 "/>
</clipPath>
</defs>
<g id="surface1">
<g clip-path="url(#clip1)" clip-rule="nonzero">
<path style=" stroke:none;fill-rule:nonzero;fill:rgb(37.249756%,15.689087%,65.098572%);fill-opacity:1;" d="M 336.878906 86.753906 C 334.546875 85.027344 290.238281 52.675781 234.320312 39.109375 C 226.375 25.367188 203.898438 4.226562 189.617188 0.273438 C 188.957031 0.0898438 188.28125 0 187.601562 0 C 186.921875 0 186.246094 0.0898438 185.585938 0.273438 C 171.304688 4.226562 148.828125 25.367188 140.882812 39.109375 C 84.960938 52.675781 40.65625 85.027344 38.324219 86.753906 C 33.179688 90.554688 30.109375 96.636719 30.109375 103.035156 C 30.109375 117.367188 30.910156 244.613281 58.613281 297.699219 C 71.4375 322.273438 96.058594 342.597656 131.796875 358.109375 C 158.191406 369.5625 181.257812 374.15625 183.796875 374.640625 C 185.042969 374.878906 186.324219 375 187.601562 375 C 188.878906 375 190.15625 374.878906 191.402344 374.640625 C 193.945312 374.15625 217.011719 369.5625 243.40625 358.109375 C 279.144531 342.597656 303.765625 322.273438 316.589844 297.699219 C 344.289062 244.613281 345.09375 117.367188 345.09375 103.035156 C 345.09375 96.636719 342.019531 90.554688 336.878906 86.753906 "/>
</g>
<path style=" stroke:none;fill-rule:nonzero;fill:rgb(53.329468%,41.569519%,86.669922%);fill-opacity:1;" d="M 165.75 216.964844 L 165.304688 218.550781 C 165.046875 219.445312 164.824219 220.386719 164.644531 221.347656 L 164.441406 222.414062 L 164.292969 223.507812 C 164.171875 224.429688 164.070312 225.378906 163.992188 226.414062 L 163.957031 226.863281 L 163.902344 227.960938 C 163.824219 229.570312 163.796875 231.195312 163.820312 232.796875 L 163.851562 234.742188 L 161.960938 234.277344 C 155.113281 232.597656 148.929688 232.246094 144.953125 232.246094 L 144.363281 232.246094 L 144.203125 232.210938 C 143.511719 232.058594 142.84375 231.898438 142.222656 231.734375 L 142.007812 231.671875 C 141.761719 231.601562 141.523438 231.535156 141.285156 231.460938 L 140.1875 231.128906 L 140.277344 228.15625 L 140.277344 227.886719 L 140.398438 227.605469 C 140.660156 226.992188 140.960938 226.300781 141.289062 225.566406 L 141.597656 224.875 L 141.570312 224.875 L 142.550781 222.878906 C 143.265625 221.425781 143.960938 220.128906 144.617188 219.027344 L 145.144531 218.148438 L 146.691406 216.027344 C 147.46875 215.105469 148.191406 214.480469 148.90625 214.128906 L 149.359375 213.90625 Z M 123.925781 151.199219 C 117.027344 152.332031 111.464844 154.617188 107.347656 158.003906 C 113.449219 159.375 127.078125 163.382812 130.011719 172.257812 L 130.714844 174.378906 L 128.484375 174.226562 C 128.464844 174.222656 126.929688 174.117188 124.542969 174.117188 C 118.929688 174.117188 105.652344 174.746094 98.75 180.320312 L 123.566406 204.464844 L 121.730469 205.425781 C 121.425781 205.585938 91.328125 221.488281 86.554688 240.121094 C 85.167969 245.535156 86.09375 250.726562 89.308594 255.546875 C 106.058594 280.667969 125.941406 284.574219 126.140625 284.609375 L 127.417969 284.847656 L 125.523438 333.503906 L 123.359375 332.234375 C 117.390625 328.726562 114.128906 326.15625 113.992188 326.046875 L 113.417969 325.59375 L 113.503906 316.761719 L 113.695312 297.140625 C 113.28125 297.148438 112.867188 297.152344 112.464844 297.152344 C 100.699219 297.152344 91.503906 293.894531 85.136719 287.472656 C 76.179688 278.433594 76.03125 266.324219 76.042969 264.976562 L 79.046875 265 C 79.039062 265.761719 79.09375 280.765625 91.761719 288.925781 C 83.75 278.007812 81.515625 258.355469 80.898438 249.296875 L 71.644531 263.804688 L 70.375 261.839844 C 70.109375 261.425781 63.890625 251.480469 68.3125 231.472656 C 71.953125 214.996094 86.757812 209.515625 92.429688 208 C 84.792969 197.851562 68.09375 197.464844 67.914062 197.464844 L 66.15625 197.433594 L 66.460938 195.703125 C 66.484375 195.5625 69.003906 181.464844 73.964844 169.144531 C 74.355469 168.179688 74.75 167.175781 75.152344 166.152344 L 75.1875 166.058594 C 75.1875 166.058594 75.242188 165.960938 75.246094 165.953125 L 76.652344 162.261719 C 79.855469 153.839844 83.0625 144.753906 84.417969 140.867188 C 78.144531 141.199219 71.636719 145.710938 71.570312 145.761719 L 69.359375 143.875 C 74.953125 132.425781 93.378906 121.0625 99.5625 117.484375 L 99.414062 116.480469 C 101.34375 116.195312 103.296875 116.054688 105.226562 116.054688 C 133.6875 116.054688 155.527344 147.203125 166.011719 165.769531 C 169.253906 171.507812 174.445312 175.992188 180.636719 178.398438 L 181.59375 178.769531 L 181.59375 182.078125 L 179.566406 181.316406 C 173.304688 178.953125 167.90625 174.546875 164.355469 168.90625 L 153.972656 152.402344 C 151.800781 151.933594 143.882812 150.378906 134.738281 150.378906 C 131.832031 150.378906 129.035156 150.535156 126.425781 150.847656 L 125.554688 150.949219 L 125.542969 150.933594 Z M 107.429688 301.058594 L 108.453125 301.410156 L 108.230469 324.074219 L 105.890625 322.410156 C 105.488281 322.121094 105.085938 321.832031 104.6875 321.542969 L 104.082031 321.101562 C 103.894531 320.964844 103.191406 320.429688 103.191406 320.429688 C 101.894531 319.457031 100.761719 318.582031 99.738281 317.757812 C 99.59375 317.640625 98.691406 316.902344 98.691406 316.902344 C 98.335938 316.609375 97.976562 316.316406 97.625 316.019531 C 97.488281 315.90625 96.757812 315.273438 96.757812 315.273438 C 96.351562 314.929688 95.949219 314.582031 95.550781 314.230469 C 95.417969 314.113281 95.28125 313.992188 95.148438 313.867188 L 94.707031 313.46875 C 94.308594 313.113281 93.914062 312.761719 93.527344 312.402344 C 93.394531 312.277344 92.628906 311.546875 92.628906 311.546875 C 92.265625 311.207031 91.902344 310.867188 91.550781 310.519531 L 91.46875 310.441406 C 90.8125 309.796875 90.214844 309.199219 89.625 308.59375 C 89.476562 308.441406 88.890625 307.816406 88.890625 307.816406 L 88.59375 307.503906 C 88.3125 307.210938 88.03125 306.917969 87.761719 306.621094 L 87.527344 306.355469 C 86.339844 305.054688 85.21875 303.765625 84.207031 302.523438 C 84.019531 302.296875 83.851562 302.078125 83.679688 301.863281 L 80.640625 298.023438 L 84.96875 299.144531 C 88.464844 300.046875 91.820312 300.167969 94.636719 300.167969 C 95.554688 300.167969 96.457031 300.15625 97.332031 300.140625 C 98.1875 300.128906 99.019531 300.113281 99.832031 300.113281 C 102.355469 300.113281 105.027344 300.226562 107.429688 301.058594 Z M 319.007812 244.722656 C 318.898438 245.75 318.757812 246.824219 318.558594 248.101562 L 315.589844 248.054688 C 315.515625 247.445312 315.429688 246.835938 315.335938 246.230469 L 314.652344 242.644531 L 314.425781 241.8125 L 314.636719 242.695312 L 315.273438 246.183594 C 315.988281 251.125 316.046875 255.988281 315.449219 260.699219 L 315.429688 260.851562 L 315.261719 261.332031 L 312.34375 260.792969 C 312.378906 259.660156 312.375 258.535156 312.339844 257.445312 L 312.136719 254.242188 L 312.03125 253.457031 L 312.105469 254.210938 L 312.28125 257.402344 C 312.378906 261.816406 311.996094 266.105469 311.140625 270.203125 L 310.804688 271.597656 L 310.71875 271.761719 C 307.511719 277.867188 304.085938 282.433594 301.78125 285.191406 C 299.796875 287.5625 298.457031 288.824219 298.398438 288.878906 L 294.492188 292.546875 L 295.929688 287.382812 C 295.953125 287.289062 297.890625 280.203125 297.707031 273.234375 C 295.527344 280.902344 290.082031 291.824219 276.523438 295.820312 L 276.042969 294.828125 C 274.890625 295.289062 273.660156 295.65625 272.261719 295.960938 C 269.964844 296.457031 267.53125 296.707031 265.027344 296.707031 C 264.773438 296.707031 264.519531 296.703125 264.269531 296.699219 C 259.878906 296.609375 255.089844 295.832031 249.203125 294.246094 L 248.136719 293.957031 L 247.78125 284.84375 L 249.066406 284.609375 C 249.121094 284.601562 254.304688 283.605469 261.527344 279.367188 C 242.347656 275.4375 205.207031 260.359375 186.734375 247.269531 L 186.121094 246.832031 L 186.109375 246.851562 L 184.636719 245.730469 C 184.023438 245.261719 183.433594 244.796875 182.871094 244.335938 C 177.910156 240.261719 171.882812 237.15625 164.957031 235.09375 L 163.914062 234.78125 L 163.882812 233.699219 C 163.816406 231.269531 163.847656 229.105469 163.976562 227.074219 C 164.199219 223.664062 164.671875 220.785156 165.410156 218.277344 L 165.789062 216.976562 L 169.933594 217.75 C 170.851562 216.347656 172.921875 214.152344 176.9375 213.972656 C 177.136719 213.964844 177.355469 213.957031 177.589844 213.957031 C 180.039062 213.957031 183.800781 214.46875 187.917969 215.363281 C 192.851562 216.433594 202.730469 219.035156 213.472656 224.4375 C 226.96875 231.226562 266.851562 236.640625 275.800781 237.789062 C 275.578125 235.570312 274.925781 231.378906 273 226.355469 C 272.691406 225.558594 270.394531 225.277344 268.542969 225.054688 C 265.578125 224.695312 262.210938 224.285156 260.488281 221.796875 C 259.101562 219.789062 259.195312 216.792969 259.300781 213.625 C 259.359375 211.722656 259.425781 209.757812 259.140625 208.140625 C 259.109375 207.945312 259.070312 207.761719 259.027344 207.585938 L 258.714844 208.445312 L 257.15625 207.515625 C 256.328125 207.023438 255.609375 206.609375 255.035156 206.285156 L 253.199219 205.246094 L 254.78125 203.851562 C 255.796875 202.957031 256.867188 202.0625 257.902344 201.199219 C 258.503906 200.699219 259.105469 200.195312 259.710938 199.679688 C 260.710938 198.824219 261.550781 198.078125 262.292969 197.371094 L 260.753906 195.59375 L 276.449219 180.320312 C 269.550781 174.746094 256.273438 174.117188 250.664062 174.117188 L 247.6875 174.125 L 249.140625 171.820312 C 249.492188 171.261719 249.851562 170.707031 250.226562 170.164062 C 251.660156 168.148438 253.074219 166.398438 254.5625 164.804688 L 255.746094 163.574219 L 256.992188 162.367188 L 257.171875 162.203125 C 257.550781 161.875 257.875 161.589844 258.136719 161.253906 L 258.386719 160.9375 L 258.761719 160.789062 C 262.222656 159.414062 265.578125 158.523438 267.859375 158.007812 C 263.785156 154.65625 258.296875 152.382812 251.5 151.234375 L 249.421875 150.886719 L 249.402344 150.917969 L 248.527344 150.816406 C 245.988281 150.527344 243.277344 150.378906 240.460938 150.378906 C 231.304688 150.378906 223.398438 151.933594 221.226562 152.402344 L 210.847656 168.90625 C 207.796875 173.75 203.457031 177.648438 198.292969 180.167969 L 196.132812 181.226562 L 196.132812 177.757812 L 196.964844 177.34375 C 202.136719 174.769531 206.367188 170.769531 209.191406 165.769531 C 219.675781 147.203125 241.515625 116.054688 269.976562 116.054688 C 271.90625 116.054688 273.859375 116.195312 275.789062 116.480469 C 301.140625 120.234375 311.492188 137.464844 315.710938 151.253906 L 312.964844 152.421875 C 312.964844 152.421875 312.730469 151.992188 312.679688 151.902344 C 311.816406 150.386719 310.878906 148.914062 309.875 147.503906 C 310.867188 148.960938 311.789062 150.4375 312.625 151.921875 C 315.277344 156.648438 317.257812 161.6875 318.515625 166.90625 L 318.597656 167.269531 L 318.605469 167.394531 C 318.746094 169.785156 318.699219 171.21875 318.695312 171.28125 L 318.488281 177.039062 L 315.859375 171.910156 C 313.832031 167.945312 308.378906 158.765625 302.898438 153.941406 C 306.082031 159.859375 311.285156 170.292969 314.886719 181.367188 L 312.246094 182.417969 L 313.195312 184.578125 L 314.4375 187.90625 L 315.535156 191.308594 C 316.90625 196.039062 317.738281 200.789062 318.027344 205.46875 L 318.191406 210.34375 L 316.027344 209.433594 C 314.3125 208.710938 308.101562 206.347656 300.179688 206.347656 C 299.355469 206.347656 298.535156 206.375 297.71875 206.425781 C 303.207031 209.730469 312.503906 216.703125 316.871094 227.972656 C 318.910156 233.230469 319.628906 238.867188 319.007812 244.722656 Z M 261.609375 307.363281 L 259.195312 307.691406 L 259.226562 307.902344 L 259.476562 309.917969 C 259.757812 312.480469 259.898438 315.121094 259.90625 318.003906 C 259.894531 319.839844 259.796875 321.675781 259.628906 323.484375 L 259.621094 323.535156 L 259.757812 323.453125 L 259.078125 327.613281 L 258.167969 328.242188 L 255.511719 330.050781 L 255.929688 325.804688 L 255.953125 325.789062 L 256.054688 323.59375 C 256.078125 323.066406 256.089844 322.53125 256.09375 321.988281 C 256.058594 322.65625 256.023438 323.3125 255.988281 323.953125 C 255.960938 324.316406 255.929688 324.660156 255.898438 325.003906 L 255.816406 325.925781 L 255.875 325.894531 C 255.875 325.894531 255.429688 329.304688 255.414062 329.429688 L 255.3125 330.121094 L 254.726562 330.488281 C 253.847656 331.035156 252.886719 331.621094 251.839844 332.234375 L 249.679688 333.503906 L 248.535156 304.179688 L 249.4375 303.757812 C 253.855469 301.675781 257.226562 299.800781 259.269531 298.59375 L 261.507812 297.273438 Z M 57.203125 144.152344 C 55.699219 147.976562 54.503906 152.101562 53.648438 156.398438 L 50.675781 156.195312 C 48.902344 126.515625 48.863281 104.003906 48.863281 103.058594 L 48.859375 102.300781 L 49.46875 101.828125 C 49.46875 101.828125 49.929688 101.488281 50.816406 100.863281 C 51.109375 100.65625 51.449219 100.417969 51.832031 100.152344 L 52.71875 99.539062 C 53.359375 99.101562 54.085938 98.605469 54.898438 98.0625 C 55.308594 97.789062 55.734375 97.503906 56.183594 97.210938 C 70.070312 88.046875 98.511719 71.125 132.992188 60.683594 L 135.660156 59.875 L 134.867188 62.546875 C 131.921875 72.449219 127.78125 86.046875 123.210938 100.828125 C 122.425781 103.367188 122.324219 106.058594 122.902344 108.648438 L 125.4375 110.59375 L 123.972656 113.179688 C 118.238281 110.910156 112.351562 109.757812 106.46875 109.757812 C 104.253906 109.757812 102.011719 109.925781 99.804688 110.257812 C 79.445312 113.316406 64.714844 125.039062 57.203125 144.152344 Z M 194.597656 106.769531 L 194.445312 106.949219 L 189.101562 110.304688 L 189.101562 141.839844 L 186.933594 140.765625 C 185.882812 140.242188 161.210938 127.785156 160.152344 109.144531 L 163.0625 108.546875 C 163.109375 108.679688 164.140625 111.355469 166.699219 112.445312 C 166.257812 110.128906 165.082031 106.339844 161.9375 104.175781 L 161.070312 103.585938 L 161.332031 102.570312 C 161.386719 102.359375 162.707031 97.449219 168.550781 96.046875 L 169.433594 95.832031 L 173.628906 100.601562 C 174.195312 101.242188 175.007812 101.613281 175.859375 101.613281 L 175.945312 103.113281 L 175.957031 101.609375 C 177.335938 101.597656 178.515625 100.644531 178.835938 99.296875 C 179.238281 97.601562 180.132812 96.089844 181.433594 94.925781 L 183.789062 92.8125 L 186.085938 94.683594 L 184.472656 97.445312 C 183.976562 98.296875 183.972656 99.3125 184.464844 100.167969 C 184.949219 101.023438 185.832031 101.535156 186.816406 101.539062 L 188.324219 101.539062 C 189.316406 101.535156 190.207031 101.015625 190.703125 100.148438 C 191.203125 99.28125 191.195312 98.246094 190.691406 97.386719 L 189.113281 94.683594 L 191.414062 92.8125 L 193.769531 94.925781 C 197.21875 98.019531 197.582031 103.222656 194.597656 106.769531 Z M 244.5 109.671875 C 244.300781 109.105469 244.125 108.53125 243.949219 107.960938 C 243.832031 107.601562 243.722656 107.242188 243.609375 106.894531 C 243.519531 106.613281 243.425781 106.332031 243.332031 106.050781 L 242.511719 103.550781 L 234.3125 109.816406 L 230.503906 112.726562 C 230.503906 112.726562 229.917969 113.246094 229.648438 113.492188 L 229.644531 113.445312 L 227.285156 115.671875 C 217.109375 125.277344 208.691406 136.425781 202.261719 148.804688 C 197.335938 158.285156 191.289062 165.175781 188.980469 167.640625 C 188.867188 167.539062 188.742188 167.429688 188.609375 167.308594 C 185.621094 164.578125 178.066406 157.136719 172.480469 146.980469 C 165.554688 134.390625 156.382812 123.019531 145.21875 113.1875 L 145.121094 113.101562 C 144.953125 112.066406 145.007812 111.003906 145.28125 109.996094 C 147.855469 100.429688 156.367188 68.714844 157.675781 62.203125 C 157.851562 61.335938 158.425781 59.691406 160.164062 56.792969 C 162.183594 53.441406 165.164062 49.433594 168.558594 45.515625 C 172.265625 41.238281 176.105469 37.464844 179.671875 34.597656 C 182.894531 32.007812 185.792969 30.261719 188.054688 29.539062 L 189.101562 29.207031 L 189.101562 13.878906 C 198.648438 18.335938 208.464844 28.292969 216.089844 36.660156 C 217.214844 37.890625 218.265625 39.0625 219.230469 40.132812 C 221.785156 42.976562 223.632812 45.035156 224.839844 46.0625 C 224.921875 46.128906 225.367188 46.570312 226.265625 48.539062 C 227.351562 50.917969 228.730469 54.707031 230.355469 59.792969 C 234.867188 73.890625 240.042969 93.988281 242.0625 101.976562 L 242.101562 102.101562 C 242.703125 103.832031 243.21875 105.390625 243.679688 106.855469 C 243.679688 106.855469 244.109375 108.238281 244.207031 108.570312 L 244.730469 110.320312 Z M 127.429688 107.992188 L 127.558594 108.488281 L 128.613281 109.296875 C 128.898438 109.515625 129.1875 109.742188 129.46875 109.96875 L 132.507812 112.351562 L 132.316406 109.035156 C 132.289062 108.578125 132.277344 108.128906 132.273438 107.675781 C 132.300781 108.367188 132.34375 109.0625 132.410156 109.765625 C 132.484375 110.480469 132.59375 111.25 132.75 112.121094 L 132.847656 112.664062 L 133.269531 113.015625 C 134.054688 113.65625 134.828125 114.308594 135.59375 114.96875 L 138.683594 117.613281 L 138.054688 113.597656 C 137.992188 113.214844 137.9375 112.828125 137.890625 112.4375 C 137.984375 112.972656 138.195312 114.167969 138.195312 114.167969 C 138.40625 115.25 138.644531 116.359375 138.929688 117.554688 L 139.039062 118.003906 L 139.378906 118.316406 C 149.242188 127.316406 157.632812 137.257812 164.328125 147.863281 C 172.074219 160.132812 182.53125 169.105469 186.664062 172.394531 C 187.097656 172.738281 187.464844 173.023438 187.761719 173.253906 C 188.355469 173.707031 188.691406 173.945312 188.691406 173.945312 L 189.644531 174.628906 L 190.535156 173.871094 C 190.5625 173.851562 191.148438 173.351562 192.140625 172.425781 C 195.355469 169.421875 203.5625 161.21875 210.296875 149.921875 C 215.734375 140.808594 222.34375 132.175781 229.953125 124.257812 L 230.402344 123.742188 C 230.402344 123.742188 230.355469 122.9375 230.351562 122.910156 C 230.296875 122.03125 230.199219 121.15625 230.105469 120.308594 C 230.070312 120.019531 230.042969 119.722656 230.011719 119.414062 C 230.078125 119.710938 230.132812 120.007812 230.175781 120.304688 L 230.210938 120.574219 L 230.648438 123.5 L 232.75 121.421875 C 233.578125 120.605469 234.410156 119.800781 235.257812 119.003906 L 235.796875 118.496094 L 235.71875 117.757812 C 235.675781 117.347656 235.632812 116.9375 235.574219 116.511719 L 235.417969 115.453125 C 235.445312 115.550781 235.46875 115.648438 235.492188 115.75 L 236.066406 118.21875 L 238.257812 116.246094 C 238.621094 115.921875 238.984375 115.59375 239.351562 115.269531 L 239.96875 114.730469 L 239.84375 113.921875 C 239.714844 113.054688 239.574219 112.195312 239.425781 111.332031 C 239.355469 110.929688 239.292969 110.527344 239.230469 110.125 C 239.328125 110.523438 239.417969 110.921875 239.496094 111.316406 C 239.523438 111.457031 239.546875 111.597656 239.574219 111.738281 L 240.097656 114.597656 L 242.070312 112.949219 C 242.714844 112.402344 243.371094 111.867188 244.03125 111.332031 L 244.851562 110.667969 L 244.847656 110.65625 L 246.5625 109.328125 L 247.230469 108.800781 L 247.640625 108.488281 L 247.769531 107.992188 C 248.269531 106.074219 248.226562 104.0625 247.640625 102.171875 C 245.671875 95.804688 238.914062 73.902344 234.621094 59.273438 C 233.113281 54.140625 232.050781 50.371094 231.457031 48.078125 C 231.3125 47.523438 231.191406 47.039062 231.101562 46.640625 C 230.363281 43.464844 227.253906 39.015625 224.769531 35.847656 C 216.640625 25.476562 199.867188 9.390625 188 6.109375 L 187.601562 5.996094 L 187.203125 6.109375 C 175.335938 9.390625 158.558594 25.476562 150.433594 35.847656 C 147.949219 39.015625 144.835938 43.464844 144.101562 46.636719 C 144.011719 47.035156 143.890625 47.523438 143.746094 48.078125 C 143.148438 50.382812 142.082031 54.152344 140.582031 59.273438 C 136.292969 73.890625 129.53125 95.804688 127.558594 102.171875 C 126.976562 104.0625 126.933594 106.074219 127.429688 107.992188 "/>
<path style=" stroke:none;fill-rule:nonzero;fill:rgb(100%,100%,100%);fill-opacity:1;" d="M 214.175781 82.011719 L 213.144531 81.683594 C 213.035156 81.648438 212.03125 81.347656 210.585938 81.347656 C 207.84375 81.347656 202.878906 82.449219 200.394531 89.832031 L 199.835938 91.488281 L 201.558594 91.785156 C 201.605469 91.796875 202.675781 91.980469 204.15625 91.980469 C 206.527344 91.980469 209.8125 91.511719 212.007812 89.277344 C 213.507812 87.746094 214.242188 85.667969 214.195312 83.089844 Z M 176.785156 89.832031 L 177.339844 91.488281 L 175.621094 91.785156 C 175.574219 91.796875 174.5 91.980469 173.023438 91.980469 C 170.652344 91.980469 167.367188 91.511719 165.175781 89.277344 C 163.671875 87.746094 162.933594 85.667969 162.984375 83.089844 L 163.003906 82.011719 L 164.035156 81.683594 C 164.144531 81.648438 165.152344 81.347656 166.59375 81.347656 C 169.335938 81.347656 174.300781 82.449219 176.785156 89.832031 "/>
<path style=" stroke:none;fill-rule:nonzero;fill:rgb(79.219055%,70.979309%,94.509888%);fill-opacity:1;" d="M 182.464844 14.710938 C 182.464844 14.710938 166.195312 23.542969 160.734375 30.28125 C 159.25 32.109375 157.933594 34.023438 156.796875 35.839844 C 153.746094 40.726562 152.015625 44.921875 152.015625 44.921875 C 152.015625 44.921875 155.851562 40.691406 161.144531 35.167969 C 167.5 28.535156 175.964844 20.035156 182.464844 14.710938 Z M 170.605469 72.578125 C 169.695312 74.507812 180.800781 82.550781 181.03125 81.753906 C 181.253906 80.964844 179.894531 72.695312 181.820312 73.375 C 182.605469 73.648438 183.699219 76.914062 184.726562 80.703125 C 185.125 82.167969 186.363281 82.902344 187.601562 82.902344 C 188.839844 82.902344 190.074219 82.167969 190.472656 80.703125 C 191.503906 76.914062 192.597656 73.648438 193.378906 73.375 C 195.304688 72.695312 193.945312 80.964844 194.171875 81.753906 C 194.402344 82.550781 205.503906 74.507812 204.597656 72.578125 C 203.851562 70.996094 192.804688 60.414062 188.929688 56.734375 C 188.558594 56.378906 188.078125 56.203125 187.601562 56.203125 C 187.121094 56.203125 186.644531 56.378906 186.273438 56.734375 C 182.398438 60.414062 171.351562 70.996094 170.605469 72.578125 Z M 274.398438 225.820312 C 273.113281 222.46875 264.34375 224.730469 261.722656 220.945312 C 259.859375 218.246094 261.390625 212.242188 260.617188 207.878906 C 260.347656 206.34375 259.796875 205.011719 258.707031 204.097656 L 257.925781 206.230469 L 256.253906 210.792969 L 250.84375 225.5625 C 255.34375 225.644531 259.710938 226.632812 263.886719 228.011719 C 266.011719 228.742188 268.101562 229.570312 270.128906 230.523438 C 272.152344 231.476562 274.140625 232.507812 276.015625 233.726562 C 271.851562 232.140625 267.65625 230.722656 263.402344 229.628906 C 259.160156 228.53125 254.832031 227.726562 250.539062 227.722656 C 249.265625 227.710938 248.035156 227.605469 246.824219 227.460938 C 246.78125 227.464844 246.738281 227.476562 246.695312 227.480469 C 246.597656 227.484375 246.496094 227.476562 246.402344 227.457031 C 246.175781 227.410156 245.949219 227.367188 245.722656 227.320312 C 245.0625 227.230469 244.402344 227.136719 243.742188 227.035156 C 241.527344 226.6875 239.328125 226.300781 237.136719 225.878906 C 232.757812 225.039062 228.398438 224.113281 224.054688 223.152344 C 215.363281 221.226562 206.707031 219.179688 198.078125 217.027344 C 194.582031 216.160156 191.09375 215.277344 187.601562 214.386719 C 182.648438 213.128906 177.699219 211.855469 172.75 210.554688 C 170.160156 211.683594 168.378906 214.300781 167.320312 217.230469 C 167.144531 217.710938 166.992188 218.203125 166.847656 218.699219 L 170.726562 219.425781 C 170.726562 219.425781 172.121094 215.6875 177.003906 215.46875 C 179.007812 215.382812 182.777344 215.78125 187.601562 216.828125 C 194.523438 218.332031 203.621094 221.160156 212.796875 225.777344 C 228.371094 233.605469 277.410156 239.507812 277.410156 239.507812 C 277.410156 239.507812 277.410156 233.667969 274.398438 225.820312 Z M 143.402344 219.167969 C 143.398438 219.179688 143.394531 219.191406 143.390625 219.207031 C 143.183594 219.929688 142.941406 220.644531 142.757812 221.382812 L 142.335938 223.539062 C 142.820312 223.507812 143.296875 223.492188 143.765625 223.527344 C 143.808594 223.53125 143.851562 223.539062 143.898438 223.539062 C 144.527344 222.261719 145.207031 220.972656 145.90625 219.796875 C 145.449219 219.71875 144.992188 219.632812 144.539062 219.519531 C 144.15625 219.425781 143.78125 219.300781 143.402344 219.167969 Z M 141.777344 228.191406 C 142.035156 227.585938 142.332031 226.902344 142.65625 226.183594 C 142.441406 226.101562 142.230469 226.011719 142.015625 225.917969 C 141.9375 226.675781 141.820312 227.429688 141.777344 228.191406 Z M 160.59375 215.910156 C 158.855469 215.617188 157.113281 215.359375 155.363281 215.117188 C 153.605469 214.902344 151.84375 214.707031 150.074219 214.585938 C 149.1875 214.515625 148.300781 214.503906 147.417969 214.367188 C 146.976562 214.304688 146.535156 214.1875 146.089844 214.058594 C 146.023438 214.035156 145.957031 214.015625 145.890625 213.996094 C 145.636719 214.363281 145.398438 214.738281 145.179688 215.136719 C 144.90625 215.632812 144.617188 216.121094 144.382812 216.644531 C 144.566406 216.636719 144.753906 216.632812 144.941406 216.636719 C 145.917969 216.671875 146.878906 216.84375 147.839844 216.992188 C 148.4375 216.285156 149.023438 215.746094 149.574219 215.46875 L 163.859375 218.140625 C 164 217.632812 164.160156 217.128906 164.332031 216.628906 C 163.9375 216.589844 163.566406 216.496094 163.1875 216.417969 C 162.332031 216.21875 161.457031 216.078125 160.59375 215.910156 Z M 154.652344 210.179688 C 153.398438 209.996094 152.144531 209.808594 150.886719 209.628906 C 150.714844 209.699219 150.5 209.792969 150.324219 209.882812 C 150.023438 210.023438 149.734375 210.222656 149.4375 210.386719 L 148.59375 211 C 148.429688 211.140625 148.273438 211.285156 148.109375 211.433594 C 148.835938 211.414062 149.554688 211.472656 150.277344 211.511719 C 152.121094 211.632812 153.960938 211.808594 155.789062 212.089844 C 157.625 212.347656 159.441406 212.78125 161.226562 213.316406 C 162.113281 213.605469 163 213.894531 163.863281 214.265625 C 164.265625 214.40625 164.667969 214.574219 165.03125 214.828125 C 165.375 214.050781 165.777344 213.289062 166.242188 212.554688 L 157.21875 210.707031 Z M 61.347656 159.570312 L 62.832031 157.230469 L 64.386719 154.9375 C 64.925781 154.1875 65.46875 153.4375 66.027344 152.707031 L 67.761719 150.546875 L 69.558594 148.445312 C 70.183594 147.769531 70.769531 147.058594 71.480469 146.457031 C 72.214844 145.878906 73.011719 145.363281 74.007812 145.046875 C 73.789062 146.078125 73.371094 146.910156 72.890625 147.683594 C 72.429688 148.476562 71.84375 149.152344 71.296875 149.863281 L 69.710938 152.039062 L 68.191406 154.257812 C 67.714844 155.019531 67.21875 155.761719 66.71875 156.507812 L 65.304688 158.78125 L 63.960938 161.101562 L 62.964844 162.882812 C 66.558594 157.476562 71.609375 151.175781 76.410156 149.6875 C 76.410156 149.6875 61.769531 174.003906 58.378906 195.355469 C 59.632812 192.230469 60.980469 189.144531 62.449219 186.121094 L 64.019531 182.957031 L 65.691406 179.851562 L 67.4375 176.789062 C 68.042969 175.777344 68.644531 174.769531 69.269531 173.773438 L 71.191406 170.816406 L 73.179688 167.910156 C 73.871094 166.960938 74.519531 165.976562 75.300781 165.09375 C 76.101562 164.238281 76.96875 163.433594 78.050781 162.792969 C 82.308594 151.609375 86.511719 139.421875 86.511719 139.421875 C 79.074219 138.648438 70.707031 144.53125 70.707031 144.53125 C 77.195312 131.246094 102.152344 117.746094 102.289062 117.671875 C 101.410156 117.742188 100.523438 117.835938 99.632812 117.964844 C 65.933594 122.957031 59.472656 152.398438 58.265625 165.242188 C 58.8125 164.140625 59.375 163.050781 59.96875 161.980469 Z M 77.546875 264.917969 C 77.546875 264.917969 77.546875 264.945312 77.546875 264.984375 C 77.546875 264.984375 77.546875 264.988281 77.546875 264.988281 C 77.535156 266.386719 77.722656 288.648438 100.78125 294.328125 C 83 287.886719 82.171875 244.515625 82.171875 244.515625 L 71.636719 261.027344 C 71.636719 261.027344 65.4375 251.421875 69.777344 231.796875 C 74.117188 212.171875 94.878906 208.976562 94.878906 208.976562 C 87.441406 196.273438 67.9375 195.964844 67.9375 195.964844 C 67.9375 195.964844 70.398438 182.019531 75.355469 169.707031 C 75.746094 168.734375 76.144531 167.726562 76.546875 166.699219 C 76.078125 167.535156 75.566406 168.332031 75.058594 169.140625 L 73.273438 172.117188 L 71.558594 175.128906 C 71.015625 176.152344 70.449219 177.160156 69.886719 178.167969 L 68.269531 181.230469 C 67.230469 183.292969 66.203125 185.359375 65.207031 187.4375 C 63.242188 191.613281 61.429688 195.859375 59.820312 200.183594 L 58.644531 203.441406 C 58.367188 204.273438 58.070312 205.097656 57.761719 205.921875 C 57.816406 206.734375 57.886719 207.53125 57.996094 208.316406 C 57.996094 208.316406 69.050781 203.015625 82.359375 205.527344 C 82.359375 205.527344 72.441406 209.847656 65.128906 219.144531 L 64.539062 220.726562 C 63.339844 224.183594 62.535156 227.773438 62.074219 231.40625 L 61.804688 234.140625 L 61.648438 236.886719 L 61.636719 239.34375 L 61.636719 239.632812 C 61.679688 240.550781 61.726562 241.46875 61.75 242.386719 L 61.988281 245.136719 L 62.378906 247.871094 C 62.550781 248.777344 62.777344 249.667969 62.839844 250.609375 C 62.953125 251.535156 62.984375 252.488281 62.753906 253.558594 C 62.667969 253.480469 62.597656 253.390625 62.519531 253.308594 C 63.023438 254.683594 63.585938 256.039062 64.222656 257.363281 L 65.359375 259.574219 L 66.617188 261.730469 C 66.675781 261.824219 66.738281 261.914062 66.796875 262.003906 C 67.203125 262.601562 67.621094 263.191406 67.949219 263.859375 C 68.363281 264.597656 68.714844 265.390625 68.867188 266.398438 C 68.53125 266.292969 68.226562 266.152344 67.933594 265.996094 C 67.402344 265.722656 66.925781 265.386719 66.480469 265.019531 C 65.839844 264.410156 65.320312 263.695312 64.761719 263.015625 L 63.230469 260.863281 L 61.851562 258.601562 C 60.648438 256.464844 59.640625 254.210938 58.847656 251.886719 C 62.191406 267.648438 70.085938 278.871094 74.574219 284.230469 C 76.523438 286.558594 77.828125 287.785156 77.828125 287.785156 C 77.828125 287.785156 73.863281 273.566406 77.546875 264.917969 Z M 268.441406 321.1875 C 269.773438 320.234375 271.09375 319.265625 272.390625 318.265625 C 279.980469 312.425781 286.871094 305.765625 292.433594 298.210938 C 285.089844 300.375 275.171875 302.574219 268.261719 302.476562 Z M 88.632812 305.347656 C 87.507812 304.113281 86.414062 302.859375 85.367188 301.574219 C 86.414062 302.859375 87.507812 304.113281 88.632812 305.347656 Z M 299.144531 86.910156 C 298.628906 86.625 298.113281 86.335938 297.585938 86.042969 C 296.460938 85.425781 295.3125 84.800781 294.136719 84.167969 C 292.597656 83.34375 291.011719 82.507812 289.378906 81.664062 C 287.921875 80.914062 286.429688 80.160156 284.90625 79.402344 C 284.90625 79.402344 284.902344 79.398438 284.898438 79.398438 C 278.667969 76.3125 271.875 73.199219 264.648438 70.253906 C 262.839844 69.519531 261.003906 68.792969 259.144531 68.078125 C 255.425781 66.65625 251.605469 65.285156 247.695312 63.992188 C 245.742188 63.347656 243.769531 62.722656 241.773438 62.113281 C 245.015625 73.015625 249.375 87.296875 253.425781 100.386719 C 254.339844 103.347656 254.414062 106.507812 253.628906 109.515625 L 251.554688 111.109375 C 251.277344 111.324219 251.003906 111.546875 250.726562 111.765625 C 256.382812 109.53125 262.386719 108.257812 268.730469 108.257812 C 271.019531 108.257812 273.339844 108.429688 275.621094 108.773438 C 296.542969 111.917969 311.679688 123.964844 319.398438 143.605469 C 321.113281 147.972656 322.261719 152.253906 323.027344 156.105469 C 324.839844 125.796875 324.839844 103.035156 324.839844 103.035156 C 324.839844 103.035156 315.089844 95.828125 299.144531 86.910156 Z M 84.59375 300.59375 C 84.847656 300.917969 85.097656 301.242188 85.355469 301.5625 C 85.097656 301.242188 84.847656 300.917969 84.59375 300.59375 "/>
<path style=" stroke:none;fill-rule:nonzero;fill:rgb(6.269836%,5.879211%,5.099487%);fill-opacity:1;" d="M 242.808594 288.203125 C 242.925781 288.507812 243.199219 288.601562 242.738281 289.660156 C 241.824219 290.347656 241.640625 290.074219 241.296875 290.007812 C 240.992188 289.898438 240.6875 289.773438 240.417969 289.609375 C 239.882812 289.273438 239.457031 288.8125 239.007812 288.378906 C 238.140625 287.484375 237.320312 286.539062 236.597656 285.527344 C 235.871094 284.515625 235.257812 283.425781 234.761719 282.285156 L 234.410156 281.425781 L 234.109375 280.542969 C 234.027344 280.246094 233.894531 279.964844 233.914062 279.625 C 233.949219 279.28125 234.0625 278.90625 234.445312 278.441406 C 235.628906 278.617188 235.871094 279.101562 236.160156 279.59375 L 237.101562 281 C 237.738281 281.921875 238.398438 282.820312 239.066406 283.703125 C 239.742188 284.582031 240.453125 285.433594 241.222656 286.230469 L 241.804688 286.820312 C 242.007812 287.007812 242.195312 287.214844 242.359375 287.445312 C 242.539062 287.664062 242.675781 287.925781 242.808594 288.203125 Z M 162.785156 102.941406 C 162.785156 102.941406 163.867188 98.710938 168.902344 97.503906 L 172.503906 101.59375 C 173.363281 102.574219 174.605469 103.128906 175.910156 103.113281 C 175.933594 103.113281 175.957031 103.113281 175.980469 103.109375 C 178.050781 103.089844 179.820312 101.652344 180.292969 99.640625 C 180.613281 98.296875 181.332031 97.035156 182.4375 96.039062 L 184.789062 93.929688 L 183.179688 96.6875 C 181.539062 99.496094 183.558594 103.027344 186.8125 103.039062 L 188.324219 103.039062 C 191.605469 103.023438 193.640625 99.460938 191.988281 96.628906 L 190.410156 93.929688 L 192.765625 96.039062 C 195.59375 98.578125 195.894531 102.898438 193.449219 105.800781 L 187.601562 109.476562 L 187.601562 109.472656 L 181.949219 105.929688 C 180.878906 105.34375 180 104.640625 179.472656 103.847656 C 179.472656 103.847656 178.761719 110.078125 187.601562 111.4375 L 187.601562 139.421875 C 187.59375 139.417969 162.671875 127.070312 161.652344 109.058594 C 161.652344 109.058594 163.464844 114.042969 168.449219 114.382812 C 168.449219 114.382812 168.222656 106.679688 162.785156 102.941406 Z M 175.363281 90.308594 C 175.363281 90.308594 164.316406 92.234375 164.484375 83.113281 C 164.484375 83.113281 172.132812 80.710938 175.363281 90.308594 Z M 170.605469 72.578125 C 171.351562 70.996094 182.398438 60.414062 186.273438 56.734375 C 186.644531 56.378906 187.121094 56.203125 187.601562 56.203125 C 188.078125 56.203125 188.558594 56.378906 188.929688 56.734375 C 192.804688 60.414062 203.851562 70.996094 204.597656 72.578125 C 205.503906 74.507812 194.402344 82.550781 194.171875 81.753906 C 193.945312 80.964844 195.304688 72.695312 193.378906 73.375 C 192.597656 73.648438 191.503906 76.914062 190.472656 80.703125 C 190.074219 82.167969 188.839844 82.902344 187.601562 82.902344 C 186.363281 82.902344 185.125 82.167969 184.726562 80.703125 C 183.699219 76.914062 182.605469 73.648438 181.820312 73.375 C 179.894531 72.695312 181.253906 80.964844 181.03125 81.753906 C 180.800781 82.550781 169.695312 74.507812 170.605469 72.578125 Z M 212.695312 83.113281 C 212.863281 92.234375 201.816406 90.308594 201.816406 90.308594 C 205.046875 80.710938 212.695312 83.113281 212.695312 83.113281 Z M 185.875 149.785156 C 186.417969 150.003906 187.007812 150.109375 187.601562 150.109375 C 188.191406 150.109375 188.78125 150.003906 189.324219 149.785156 C 212.074219 140.671875 229.285156 110.625 220.007812 84.652344 C 217.949219 78.882812 215.285156 73.9375 212.371094 69.71875 C 209.066406 65.804688 205.535156 61.878906 202.207031 58.289062 C 202.261719 58.316406 202.320312 58.347656 202.375 58.375 C 205.996094 60.210938 209.328125 62.160156 211.054688 63.832031 C 216.050781 68.675781 224.300781 84.628906 224.300781 84.628906 C 224.300781 84.628906 224.300781 84.4375 224.152344 82.488281 C 224.066406 81.367188 223.933594 79.667969 223.722656 77.078125 C 223.140625 69.988281 218.027344 58.605469 218.027344 58.605469 L 222.570312 61.390625 C 222.570312 61.390625 221.945312 59.394531 220.976562 56.890625 C 219.78125 53.785156 218.074219 49.894531 216.398438 48.027344 C 215.808594 47.371094 214.792969 46.414062 213.554688 45.308594 C 208.480469 40.792969 199.550781 33.738281 199.550781 33.738281 C 199.550781 33.738281 199.550781 33.738281 205.59375 35.714844 C 211.632812 37.691406 218.839844 44.921875 218.839844 44.921875 C 218.839844 44.921875 218.722656 44.195312 214.539062 38.152344 C 213.90625 37.238281 212.839844 36.089844 211.492188 34.808594 C 203.972656 27.648438 187.601562 16.195312 187.601562 16.195312 L 187.601562 48.5625 C 187.601562 48.5625 183.8125 50.082031 178.671875 53.710938 L 178.667969 53.710938 C 171.207031 58.976562 160.894531 68.6875 155.191406 84.652344 C 145.914062 110.625 163.128906 140.671875 185.875 149.785156 Z M 272.390625 318.265625 C 271.09375 319.265625 269.773438 320.234375 268.441406 321.1875 L 268.261719 302.476562 C 275.171875 302.574219 285.089844 300.375 292.433594 298.210938 C 286.871094 305.765625 279.980469 312.425781 272.390625 318.265625 Z M 104.972656 319.894531 C 104.675781 319.679688 104.386719 319.453125 104.089844 319.234375 C 102.941406 318.367188 101.800781 317.488281 100.679688 316.589844 C 100.433594 316.394531 100.195312 316.1875 99.949219 315.988281 C 99.496094 315.621094 99.039062 315.25 98.589844 314.875 C 98.367188 314.6875 98.152344 314.492188 97.933594 314.304688 C 97.46875 313.90625 97.003906 313.515625 96.546875 313.109375 C 96.328125 312.917969 96.113281 312.71875 95.902344 312.523438 C 95.445312 312.121094 94.992188 311.714844 94.546875 311.300781 C 94.328125 311.097656 94.117188 310.890625 93.898438 310.6875 C 93.464844 310.273438 93.027344 309.867188 92.597656 309.449219 C 92.554688 309.402344 92.511719 309.359375 92.464844 309.316406 C 91.871094 308.734375 91.28125 308.144531 90.707031 307.550781 C 90.460938 307.296875 90.222656 307.035156 89.976562 306.78125 C 89.605469 306.390625 89.226562 306.003906 88.863281 305.605469 C 88.785156 305.519531 88.710938 305.429688 88.632812 305.347656 C 87.507812 304.113281 86.414062 302.859375 85.367188 301.574219 C 85.363281 301.570312 85.359375 301.5625 85.355469 301.5625 C 85.097656 301.242188 84.847656 300.917969 84.59375 300.59375 C 93.339844 302.855469 101.253906 300.515625 106.9375 302.476562 L 106.761719 321.1875 C 106.363281 320.902344 105.964844 320.617188 105.574219 320.328125 C 105.375 320.183594 105.171875 320.042969 104.972656 319.894531 Z M 58.847656 251.886719 C 59.640625 254.210938 60.648438 256.464844 61.851562 258.601562 L 63.230469 260.863281 L 64.761719 263.015625 C 65.320312 263.695312 65.839844 264.410156 66.480469 265.019531 C 66.925781 265.386719 67.402344 265.722656 67.933594 265.996094 C 68.226562 266.152344 68.53125 266.292969 68.867188 266.398438 C 68.714844 265.390625 68.363281 264.597656 67.949219 263.859375 C 67.621094 263.191406 67.203125 262.601562 66.796875 262.003906 C 66.738281 261.914062 66.675781 261.824219 66.617188 261.730469 L 65.359375 259.574219 L 64.222656 257.363281 C 63.585938 256.039062 63.023438 254.683594 62.519531 253.308594 C 62.597656 253.390625 62.667969 253.480469 62.753906 253.558594 C 62.984375 252.488281 62.953125 251.535156 62.839844 250.609375 C 62.777344 249.667969 62.550781 248.777344 62.378906 247.871094 L 61.988281 245.136719 L 61.75 242.386719 C 61.726562 241.46875 61.679688 240.550781 61.636719 239.632812 L 61.636719 239.34375 L 61.648438 236.886719 L 61.804688 234.140625 L 62.074219 231.40625 C 62.535156 227.773438 63.339844 224.183594 64.539062 220.726562 L 65.128906 219.144531 C 72.441406 209.847656 82.359375 205.527344 82.359375 205.527344 C 69.050781 203.015625 57.996094 208.316406 57.996094 208.316406 C 57.886719 207.53125 57.816406 206.734375 57.761719 205.921875 C 58.070312 205.097656 58.367188 204.273438 58.644531 203.441406 L 59.820312 200.183594 C 61.429688 195.859375 63.242188 191.613281 65.207031 187.4375 C 66.203125 185.359375 67.230469 183.292969 68.269531 181.230469 L 69.886719 178.167969 C 70.449219 177.160156 71.015625 176.152344 71.558594 175.128906 L 73.273438 172.117188 L 75.058594 169.140625 C 75.566406 168.332031 76.078125 167.535156 76.546875 166.699219 C 77.214844 165.507812 77.78125 164.238281 78.085938 162.769531 C 78.074219 162.777344 78.0625 162.789062 78.050781 162.792969 C 76.96875 163.433594 76.101562 164.238281 75.300781 165.09375 C 74.519531 165.976562 73.871094 166.960938 73.179688 167.910156 L 71.191406 170.816406 L 69.269531 173.773438 C 68.644531 174.769531 68.042969 175.777344 67.4375 176.789062 L 65.691406 179.851562 L 64.019531 182.957031 L 62.449219 186.121094 C 60.980469 189.144531 59.632812 192.230469 58.378906 195.355469 C 61.769531 174.003906 76.410156 149.6875 76.410156 149.6875 C 71.609375 151.175781 66.558594 157.476562 62.964844 162.882812 L 63.960938 161.101562 L 65.304688 158.78125 L 66.71875 156.507812 C 67.21875 155.761719 67.714844 155.019531 68.191406 154.257812 L 69.710938 152.039062 L 71.296875 149.863281 C 71.84375 149.152344 72.429688 148.476562 72.890625 147.683594 C 73.371094 146.910156 73.789062 146.078125 74.007812 145.046875 C 73.011719 145.363281 72.214844 145.878906 71.480469 146.457031 C 70.769531 147.058594 70.183594 147.769531 69.558594 148.445312 L 67.761719 150.546875 L 66.027344 152.707031 C 65.46875 153.4375 64.925781 154.1875 64.386719 154.9375 L 62.832031 157.230469 L 61.347656 159.570312 L 59.96875 161.980469 C 59.375 163.050781 58.8125 164.140625 58.265625 165.242188 C 59.472656 152.398438 65.933594 122.957031 99.632812 117.964844 C 129.808594 113.5 153.253906 146.226562 164.707031 166.503906 C 168.179688 172.65625 173.664062 177.296875 180.09375 179.792969 L 180.09375 209.425781 C 177.730469 208.796875 175.367188 208.171875 173.007812 207.535156 C 172.722656 207.457031 172.410156 207.460938 172.113281 207.574219 L 172.097656 207.578125 C 170.699219 208.085938 169.425781 208.917969 168.359375 209.925781 C 167.292969 209.371094 166.160156 209.246094 165.058594 208.941406 C 163.507812 208.582031 161.949219 208.257812 160.382812 207.976562 C 157.253906 207.433594 154.105469 206.992188 150.964844 206.523438 L 150.910156 206.511719 C 150.734375 206.488281 150.542969 206.5 150.355469 206.554688 C 149.742188 206.734375 149.386719 206.910156 148.949219 207.121094 C 148.527344 207.320312 148.15625 207.570312 147.757812 207.796875 L 146.664062 208.585938 C 146.324219 208.867188 146.003906 209.171875 145.671875 209.46875 C 145.429688 209.703125 145.203125 209.949219 144.976562 210.195312 C 144.714844 210.070312 144.453125 209.957031 144.191406 209.875 C 146.714844 204.46875 150.042969 200.46875 150.042969 200.46875 L 142.136719 202.09375 C 142.136719 202.09375 142.136719 202.09375 141.652344 192.800781 C 141.246094 185.066406 135.019531 172.183594 132.9375 168.078125 C 132.917969 166.589844 132.871094 165.097656 132.765625 163.574219 C 132.738281 163.023438 132.667969 162.4375 132.609375 161.855469 C 132.527344 161.265625 132.40625 160.558594 132.210938 160.023438 C 132.039062 159.449219 131.851562 158.875 131.609375 158.351562 C 131.382812 157.816406 131.15625 157.277344 130.890625 156.777344 C 129.863281 154.730469 128.71875 152.804688 127.429688 150.984375 C 127.042969 150.433594 126.644531 149.898438 126.246094 149.359375 C 125.335938 148.105469 124.402344 146.871094 123.441406 145.667969 C 122.742188 144.808594 122 143.988281 121.191406 143.226562 C 120.390625 142.457031 119.535156 141.730469 118.550781 141.121094 C 119.894531 144.320312 121.871094 146.972656 123.683594 149.71875 C 124.25 150.578125 124.800781 151.449219 125.3125 152.347656 C 126.410156 154.199219 127.46875 156.066406 128.3125 157.980469 C 128.542969 158.453125 128.71875 158.933594 128.898438 159.414062 C 129.097656 159.894531 129.226562 160.371094 129.367188 160.84375 C 129.539062 161.34375 129.578125 161.722656 129.644531 162.214844 C 129.671875 162.511719 129.695312 162.808594 129.71875 163.105469 C 129.089844 161.800781 128.328125 160.558594 127.457031 159.40625 L 126.65625 158.40625 L 125.800781 157.457031 C 125.492188 157.160156 125.226562 156.824219 124.839844 156.601562 C 124.4375 156.394531 123.96875 156.246094 123.3125 156.308594 C 123.113281 157.609375 123.578125 158.207031 124.027344 158.855469 C 124.441406 159.523438 124.839844 160.195312 125.226562 160.871094 C 125.984375 162.230469 126.644531 163.628906 127.257812 165.042969 C 127.839844 166.46875 128.34375 167.929688 128.707031 169.425781 L 128.960938 170.554688 C 129.027344 170.933594 129.117188 171.308594 129.234375 171.679688 C 129.332031 172.054688 129.488281 172.425781 129.660156 172.796875 C 129.738281 172.953125 129.777344 173.109375 129.871094 173.261719 C 129.859375 174.433594 129.84375 175.605469 129.824219 176.773438 C 129.8125 177.476562 129.792969 178.175781 129.777344 178.878906 C 119.589844 176.265625 105.882812 180.28125 105.882812 180.28125 C 112.488281 183.070312 128.585938 208.046875 128.585938 208.046875 C 112.945312 207.726562 94.492188 238.578125 94.492188 238.578125 C 94.492188 238.578125 94.492188 238.578125 107.972656 235.972656 C 118.375 233.964844 124.976562 235.054688 127.460938 235.65625 C 127.394531 236.914062 127.335938 238.171875 127.273438 239.429688 C 126.503906 239.332031 125.730469 239.253906 124.960938 239.199219 C 122.414062 239.011719 119.851562 239.105469 117.328125 239.410156 C 114.800781 239.71875 112.304688 240.25 109.882812 241.03125 C 107.464844 241.789062 105.125 242.96875 103.367188 244.910156 C 105.929688 244.457031 108.183594 243.757812 110.5 243.109375 C 112.816406 242.484375 115.1875 242.089844 117.578125 241.910156 C 119.570312 241.753906 121.570312 241.773438 123.558594 241.90625 C 122.777344 242.125 122 242.355469 121.230469 242.605469 C 117.742188 243.746094 114.394531 245.296875 111.238281 247.164062 C 108.09375 249.042969 105.109375 251.222656 102.476562 253.777344 C 101.828125 254.425781 101.203125 255.09375 100.578125 255.761719 C 99.996094 256.472656 99.417969 257.183594 98.859375 257.90625 C 98.328125 258.652344 97.820312 259.414062 97.316406 260.171875 C 96.878906 260.980469 96.535156 261.859375 96.558594 262.949219 C 97.613281 262.59375 98.316406 262.035156 98.917969 261.398438 C 99.535156 260.773438 100.148438 260.152344 100.738281 259.523438 C 101.378906 258.929688 101.996094 258.324219 102.609375 257.71875 C 103.257812 257.140625 103.894531 256.5625 104.511719 255.964844 C 107.085938 253.667969 109.839844 251.570312 112.816406 249.820312 C 113.707031 249.289062 114.625 248.796875 115.550781 248.328125 C 114.925781 248.910156 114.324219 249.511719 113.75 250.140625 C 112.667969 251.335938 111.683594 252.613281 110.820312 253.960938 C 109.933594 255.285156 109.109375 256.714844 109.332031 258.574219 C 110.949219 257.675781 111.734375 256.460938 112.652344 255.277344 C 113.585938 254.117188 114.59375 253.023438 115.664062 252.003906 C 117.804688 249.96875 120.214844 248.242188 122.789062 246.855469 C 125.378906 245.488281 128.171875 244.492188 131.050781 243.9375 C 131.253906 243.894531 131.457031 243.863281 131.660156 243.828125 L 137.96875 243.753906 C 141.023438 243.714844 144.070312 243.929688 147.09375 244.359375 C 150.113281 244.785156 153.105469 245.457031 156.027344 246.363281 L 164.003906 248.949219 C 164.101562 249.109375 164.230469 249.25 164.386719 249.367188 L 164.402344 249.378906 C 172.003906 254.886719 179.726562 260.234375 187.601562 265.363281 C 188.652344 266.046875 189.691406 266.742188 190.746094 267.414062 C 198.59375 272.429688 206.59375 277.226562 214.847656 281.585938 C 215.191406 281.898438 215.535156 282.214844 215.878906 282.519531 C 216.765625 283.292969 217.640625 284.078125 218.628906 284.722656 C 219.117188 285.050781 219.644531 285.328125 220.179688 285.589844 C 220.722656 285.800781 221.136719 286.210938 222.183594 285.722656 C 222.433594 285.957031 222.6875 286.1875 222.964844 286.390625 C 223.308594 286.640625 223.6875 286.84375 224.066406 287.039062 C 222.90625 287.546875 221.816406 288.15625 220.640625 288.644531 C 218.53125 289.691406 216.316406 290.515625 214.167969 291.457031 C 209.800781 293.203125 205.339844 294.71875 200.804688 296 C 196.460938 297.179688 192.046875 298.113281 187.601562 298.875 C 187.390625 298.910156 187.179688 298.949219 186.96875 298.984375 C 182.300781 299.734375 177.59375 300.253906 172.871094 300.617188 C 163.421875 301.269531 153.914062 301.363281 144.429688 300.847656 C 139.6875 300.613281 134.945312 300.25 130.21875 299.734375 C 128.597656 299.546875 125.359375 299.171875 125.359375 299.171875 C 122.257812 298.832031 119.136719 298.566406 115.933594 298.613281 C 118.949219 299.933594 122.097656 300.695312 125.277344 301.257812 C 126.832031 301.527344 128.386719 301.753906 129.941406 301.964844 C 130.316406 302.015625 130.683594 302.0625 131.054688 302.109375 C 128.675781 302.078125 126.699219 302.050781 125.25 302.027344 C 123.515625 302 122.539062 301.980469 122.539062 301.980469 C 122.539062 301.980469 123.488281 302.371094 125.207031 303.050781 C 130.078125 304.964844 141.179688 309.167969 154.910156 313.328125 C 163.570312 315.949219 172.003906 317.472656 180.09375 318.175781 L 180.09375 340.101562 C 176.714844 339.871094 173.339844 339.539062 169.984375 339.09375 C 163.203125 338.207031 156.507812 336.734375 149.9375 334.867188 C 143.367188 332.972656 136.9375 330.578125 130.753906 327.648438 C 128.59375 326.628906 126.480469 325.523438 124.378906 324.390625 C 123.464844 323.902344 122.558594 323.410156 121.648438 322.914062 C 119.421875 321.683594 117.203125 320.425781 114.984375 319.140625 L 115.207031 295.59375 C 77.734375 297.167969 77.53125 266.582031 77.546875 264.988281 C 77.546875 264.984375 77.546875 264.988281 77.546875 264.984375 C 77.546875 264.945312 77.546875 264.917969 77.546875 264.917969 C 73.863281 273.566406 77.828125 287.785156 77.828125 287.785156 C 77.828125 287.785156 76.523438 286.558594 74.574219 284.230469 C 70.085938 278.871094 62.191406 267.648438 58.847656 251.886719 Z M 50.363281 103.035156 C 50.363281 103.035156 51.167969 102.441406 52.6875 101.382812 C 61.371094 95.351562 93.476562 74.214844 133.425781 62.117188 C 130.1875 73.015625 125.824219 87.296875 121.777344 100.386719 C 120.863281 103.351562 120.789062 106.507812 121.574219 109.515625 L 124.527344 111.785156 C 118.855469 109.539062 112.832031 108.257812 106.46875 108.257812 C 104.179688 108.257812 101.863281 108.429688 99.578125 108.773438 C 78.660156 111.917969 63.519531 123.964844 55.804688 143.605469 C 54.089844 147.972656 52.941406 152.253906 52.175781 156.109375 C 50.398438 126.371094 50.363281 103.902344 50.363281 103.058594 C 50.363281 103.042969 50.363281 103.035156 50.363281 103.035156 Z M 145.5625 46.976562 C 146.113281 44.597656 148.355469 40.929688 151.617188 36.773438 C 160.457031 25.484375 176.832031 10.53125 187.601562 7.550781 C 198.367188 10.53125 214.746094 25.484375 223.585938 36.773438 C 226.847656 40.929688 229.085938 44.597656 229.636719 46.976562 C 229.730469 47.382812 229.855469 47.886719 230.003906 48.457031 C 230.652344 50.960938 231.789062 54.953125 233.179688 59.695312 C 237.414062 74.117188 243.980469 95.417969 246.207031 102.613281 C 246.710938 104.242188 246.746094 105.964844 246.316406 107.613281 C 246.09375 107.789062 245.871094 107.96875 245.648438 108.140625 C 245.472656 107.566406 245.292969 106.992188 245.117188 106.417969 C 244.609375 104.804688 244.074219 103.203125 243.519531 101.609375 C 243.234375 100.796875 242.957031 99.980469 242.65625 99.171875 C 241.792969 96.769531 240.8125 94.414062 239.757812 92.089844 C 239.226562 90.929688 238.675781 89.777344 238.105469 88.636719 C 237.8125 88.070312 237.566406 87.484375 237.175781 86.960938 C 236.769531 86.441406 236.289062 85.960938 235.550781 85.597656 C 235.117188 87.175781 235.585938 88.339844 236.027344 89.519531 L 237.277344 93.085938 L 239.78125 100.203125 C 240.449219 102.140625 241.109375 104.078125 241.742188 106.023438 C 241.886719 106.46875 242.035156 106.90625 242.175781 107.347656 C 242.484375 108.289062 242.757812 109.234375 243.085938 110.171875 C 242.421875 110.707031 241.761719 111.25 241.105469 111.796875 C 241.058594 111.539062 241.015625 111.28125 240.96875 111.023438 C 240.71875 109.785156 240.386719 108.566406 239.984375 107.367188 C 239.976562 107.339844 239.972656 107.3125 239.960938 107.285156 C 239.75 106.671875 239.527344 106.070312 239.28125 105.46875 C 239.148438 105.171875 239.070312 104.863281 238.835938 104.59375 C 238.59375 104.332031 238.269531 104.089844 237.671875 103.941406 C 236.859375 104.839844 236.992188 105.441406 237.101562 106.058594 L 237.363281 107.914062 C 237.425781 108.351562 237.503906 108.777344 237.570312 109.214844 C 237.691406 110.007812 237.808594 110.800781 237.945312 111.585938 C 238.09375 112.4375 238.230469 113.289062 238.359375 114.144531 C 237.886719 114.5625 237.417969 114.984375 236.949219 115.40625 C 236.769531 114.644531 236.535156 113.894531 236.242188 113.171875 C 236.042969 112.675781 235.816406 112.1875 235.5625 111.71875 C 235.433594 111.496094 235.351562 111.261719 235.140625 111.074219 C 235.128906 111.0625 235.121094 111.050781 235.109375 111.042969 C 234.859375 110.859375 234.535156 110.707031 233.953125 110.679688 C 233.230469 111.496094 233.3125 111.941406 233.414062 112.386719 C 233.421875 112.414062 233.425781 112.441406 233.433594 112.46875 L 233.671875 113.898438 L 234.085938 116.730469 C 234.140625 117.121094 234.1875 117.519531 234.226562 117.914062 C 233.375 118.714844 232.53125 119.53125 231.695312 120.355469 C 231.679688 120.261719 231.675781 120.167969 231.660156 120.074219 C 231.523438 119.164062 231.300781 118.269531 231.003906 117.394531 C 230.855469 116.960938 230.6875 116.53125 230.5 116.109375 C 230.398438 115.902344 230.351562 115.675781 230.144531 115.496094 C 230.070312 115.433594 229.976562 115.375 229.863281 115.320312 C 229.671875 115.222656 229.417969 115.144531 229.066406 115.097656 C 228.1875 115.800781 228.257812 116.214844 228.308594 116.644531 C 228.3125 116.683594 228.3125 116.722656 228.3125 116.761719 C 228.335938 117.15625 228.359375 117.550781 228.386719 117.9375 C 228.449219 118.792969 228.519531 119.640625 228.617188 120.480469 C 228.710938 121.316406 228.800781 122.160156 228.855469 123.003906 C 228.863281 123.074219 228.863281 123.144531 228.871094 123.214844 C 221.3125 131.082031 214.617188 139.75 209.011719 149.148438 C 202.40625 160.222656 194.414062 168.246094 191.113281 171.332031 C 190.136719 172.242188 189.566406 172.726562 189.566406 172.726562 C 189.566406 172.726562 189.242188 172.496094 188.675781 172.058594 C 188.378906 171.835938 188.023438 171.554688 187.601562 171.222656 C 183.375 167.863281 173.183594 159.082031 165.597656 147.0625 C 158.605469 135.988281 150.046875 126.023438 140.390625 117.207031 C 140.128906 116.101562 139.886719 114.996094 139.671875 113.882812 C 139.367188 112.167969 139.0625 110.453125 138.808594 108.722656 L 138.445312 106.117188 C 138.359375 105.238281 138.3125 104.378906 137.28125 103.480469 C 136.75 103.921875 136.507812 104.375 136.34375 104.832031 C 136.203125 105.285156 136.226562 105.742188 136.1875 106.199219 L 136.140625 107.570312 L 136.144531 108.945312 C 136.179688 110.578125 136.316406 112.210938 136.570312 113.828125 C 135.796875 113.164062 135.015625 112.507812 134.230469 111.859375 C 134.09375 111.109375 133.980469 110.363281 133.902344 109.609375 C 133.703125 107.414062 133.691406 105.195312 133.929688 102.988281 L 134.152344 101.335938 L 134.457031 99.6875 C 134.585938 99.144531 134.773438 98.617188 134.800781 98.035156 C 134.863281 97.457031 134.847656 96.847656 134.582031 96.09375 C 133.878906 96.417969 133.421875 96.886719 133.046875 97.386719 C 132.707031 97.910156 132.527344 98.488281 132.292969 99.050781 L 131.722656 100.789062 L 131.289062 102.570312 C 130.847656 104.714844 130.691406 106.925781 130.820312 109.117188 C 130.386719 108.78125 129.960938 108.441406 129.527344 108.109375 L 128.882812 107.613281 C 128.453125 105.964844 128.492188 104.242188 128.992188 102.613281 C 131.21875 95.417969 137.789062 74.117188 142.019531 59.695312 C 143.410156 54.957031 144.550781 50.960938 145.199219 48.457031 C 145.34375 47.886719 145.46875 47.382812 145.5625 46.976562 Z M 147.5 241.679688 C 145.773438 241.398438 144.023438 241.207031 142.269531 241.085938 L 142.03125 238.636719 C 142.117188 238.691406 142.199219 238.75 142.289062 238.796875 C 143.296875 239.375 144.390625 239.773438 145.476562 240.15625 C 147.664062 240.90625 149.914062 241.480469 152.207031 241.792969 C 153.347656 241.957031 154.511719 242.066406 155.648438 242.097656 L 158.921875 242.183594 C 159.976562 242.238281 160.992188 242.339844 161.972656 242.570312 C 162.324219 242.652344 162.65625 242.757812 163.003906 242.851562 C 163.132812 243.988281 163.285156 245.128906 163.460938 246.269531 L 156.800781 243.964844 C 153.769531 242.957031 150.65625 242.195312 147.5 241.679688 Z M 163.167969 221.066406 C 162.222656 220.691406 161.269531 220.332031 160.308594 220 C 158.320312 219.320312 156.300781 218.722656 154.25 218.257812 C 152.207031 217.765625 150.140625 217.375 148.066406 217.027344 C 147.992188 217.015625 147.917969 217.003906 147.839844 216.992188 C 146.878906 216.84375 145.917969 216.671875 144.941406 216.636719 C 144.753906 216.632812 144.566406 216.636719 144.382812 216.644531 C 144.617188 216.121094 144.90625 215.632812 145.179688 215.136719 C 145.398438 214.738281 145.636719 214.363281 145.890625 213.996094 C 145.957031 214.015625 146.023438 214.035156 146.089844 214.058594 C 146.535156 214.1875 146.976562 214.304688 147.417969 214.367188 C 148.300781 214.503906 149.1875 214.515625 150.074219 214.585938 C 151.84375 214.707031 153.605469 214.902344 155.363281 215.117188 C 157.113281 215.359375 158.855469 215.617188 160.59375 215.910156 C 161.457031 216.078125 162.332031 216.21875 163.1875 216.417969 C 163.566406 216.496094 163.9375 216.589844 164.332031 216.628906 C 164.160156 217.128906 164 217.632812 163.859375 218.140625 C 163.582031 219.109375 163.355469 220.085938 163.167969 221.066406 Z M 162.359375 234.339844 C 162.230469 234.308594 162.09375 234.277344 161.960938 234.25 C 160.878906 233.976562 159.789062 233.714844 158.703125 233.464844 C 156.527344 232.972656 154.347656 232.511719 152.148438 232.128906 C 149.960938 231.714844 147.753906 231.339844 145.574219 230.960938 C 145.207031 230.898438 144.863281 230.820312 144.519531 230.746094 C 143.851562 230.601562 143.210938 230.445312 142.613281 230.285156 C 142.3125 230.199219 142.015625 230.117188 141.722656 230.027344 L 141.777344 228.203125 C 141.777344 228.199219 141.777344 228.195312 141.777344 228.191406 C 141.820312 227.429688 141.9375 226.675781 142.015625 225.917969 C 142.230469 226.011719 142.441406 226.101562 142.65625 226.183594 C 142.855469 226.257812 143.050781 226.328125 143.246094 226.386719 C 144.179688 226.671875 145.144531 226.796875 146.101562 226.964844 C 148.015625 227.277344 149.9375 227.554688 151.867188 227.757812 C 153.796875 227.984375 155.734375 228.09375 157.675781 228.132812 C 158.648438 228.152344 159.617188 228.148438 160.589844 228.125 C 161.074219 228.101562 161.558594 228.136719 162.046875 228.007812 C 162.164062 227.972656 162.285156 227.933594 162.40625 227.886719 C 162.324219 229.535156 162.296875 231.179688 162.320312 232.820312 C 162.328125 233.328125 162.34375 233.832031 162.359375 234.339844 Z M 141.917969 235.707031 C 141.878906 235.703125 141.84375 235.691406 141.808594 235.683594 C 141.773438 234.808594 141.742188 233.929688 141.699219 233.054688 C 142.808594 233.578125 143.957031 233.785156 145.023438 233.992188 C 147.238281 234.386719 149.421875 234.777344 151.625 235.136719 C 153.820312 235.519531 156.027344 235.824219 158.242188 236.101562 C 159.351562 236.234375 160.460938 236.359375 161.574219 236.472656 C 161.867188 236.507812 162.164062 236.546875 162.464844 236.5625 C 162.488281 236.957031 162.5 237.355469 162.527344 237.746094 C 162.59375 238.65625 162.664062 239.558594 162.75 240.457031 C 162.722656 240.449219 162.695312 240.4375 162.664062 240.425781 C 161.535156 239.972656 160.347656 239.703125 159.199219 239.527344 C 158.046875 239.347656 156.917969 239.261719 155.835938 239.160156 C 154.757812 239.054688 153.714844 238.929688 152.660156 238.769531 C 150.5625 238.433594 148.492188 237.929688 146.480469 237.242188 C 145.46875 236.910156 144.496094 236.484375 143.484375 236.148438 C 142.976562 235.980469 142.453125 235.84375 141.917969 235.707031 Z M 147.558594 220.070312 C 149.574219 220.410156 151.578125 220.816406 153.578125 221.238281 L 159.578125 222.566406 L 162.582031 223.253906 C 162.65625 223.269531 162.734375 223.292969 162.804688 223.308594 C 162.675781 224.308594 162.574219 225.304688 162.496094 226.296875 C 161.910156 226 161.316406 225.941406 160.71875 225.871094 L 157.882812 225.472656 C 155.996094 225.214844 154.113281 224.945312 152.226562 224.722656 C 150.347656 224.46875 148.464844 224.21875 146.585938 223.921875 C 145.691406 223.789062 144.804688 223.609375 143.898438 223.539062 C 143.851562 223.539062 143.808594 223.53125 143.765625 223.527344 C 143.296875 223.492188 142.820312 223.507812 142.335938 223.539062 L 142.757812 221.382812 C 142.941406 220.644531 143.183594 219.929688 143.390625 219.207031 C 143.394531 219.191406 143.398438 219.179688 143.402344 219.167969 C 143.78125 219.300781 144.15625 219.425781 144.539062 219.519531 C 144.992188 219.632812 145.449219 219.71875 145.90625 219.796875 C 146.457031 219.890625 147.007812 219.972656 147.558594 220.070312 Z M 166.242188 212.554688 C 165.777344 213.289062 165.375 214.050781 165.03125 214.828125 C 164.667969 214.574219 164.265625 214.40625 163.863281 214.265625 C 163 213.894531 162.113281 213.605469 161.226562 213.316406 C 159.441406 212.78125 157.625 212.347656 155.789062 212.089844 C 153.960938 211.808594 152.121094 211.632812 150.277344 211.511719 C 149.554688 211.472656 148.835938 211.414062 148.109375 211.433594 C 148.273438 211.285156 148.429688 211.140625 148.59375 211 L 149.4375 210.386719 C 149.734375 210.222656 150.023438 210.023438 150.324219 209.882812 C 150.5 209.792969 150.714844 209.699219 150.886719 209.628906 C 152.144531 209.808594 153.398438 209.996094 154.652344 210.179688 C 156.414062 210.4375 158.183594 210.683594 159.953125 210.902344 C 161.53125 211.085938 163.117188 211.222656 164.707031 211.328125 C 165.480469 211.347656 166.238281 211.449219 167.011719 211.445312 C 166.738281 211.808594 166.476562 212.175781 166.242188 212.554688 Z M 143.03125 212.707031 C 143.007812 212.75 142.980469 212.796875 142.953125 212.839844 C 142.96875 212.792969 142.984375 212.75 143.003906 212.703125 C 143.015625 212.703125 143.023438 212.707031 143.03125 212.707031 Z M 187.601562 343.46875 C 188.542969 343.484375 189.488281 343.496094 190.429688 343.496094 C 204.363281 343.480469 218.347656 341.6875 231.761719 337.746094 C 238.378906 335.777344 244.875 333.335938 251.050781 330.214844 C 251.121094 330.179688 251.195312 330.144531 251.265625 330.109375 C 252.183594 329.640625 253.097656 329.148438 254 328.644531 C 253.976562 328.835938 253.953125 329.027344 253.929688 329.21875 C 253.0625 329.757812 252.109375 330.335938 251.078125 330.941406 C 251.078125 330.941406 221.628906 349.890625 187.601562 349.890625 C 153.574219 349.890625 124.121094 330.941406 124.121094 330.941406 C 118.171875 327.445312 114.925781 324.871094 114.925781 324.871094 L 114.972656 320.101562 C 115.464844 320.546875 115.964844 320.980469 116.476562 321.394531 C 117.824219 322.503906 119.234375 323.535156 120.683594 324.5 C 121.859375 325.285156 123.066406 326.015625 124.285156 326.722656 C 126.082031 327.765625 127.914062 328.738281 129.769531 329.667969 C 136.011719 332.777344 142.511719 335.351562 149.175781 337.417969 C 161.609375 341.226562 174.597656 343.21875 187.601562 343.46875 Z M 257.351562 326.691406 C 257.484375 326.613281 257.613281 326.535156 257.746094 326.453125 L 257.699219 326.742188 C 257.574219 326.828125 257.460938 326.910156 257.320312 327.003906 C 257.332031 326.898438 257.339844 326.796875 257.351562 326.691406 Z M 197.632812 318.472656 C 220 317.3125 238.523438 310.550781 250.074219 305.113281 C 254.457031 303.050781 257.832031 301.183594 260.035156 299.886719 L 260.109375 307.375 L 259.640625 305.652344 C 259.429688 304.992188 259.269531 304.316406 258.953125 303.6875 C 258.605469 303.070312 258.175781 302.476562 257.480469 301.980469 C 256.886719 303.582031 257.191406 304.851562 257.445312 306.160156 L 257.742188 308.128906 L 257.988281 310.105469 C 258.273438 312.734375 258.398438 315.375 258.40625 318.011719 C 258.394531 319.789062 258.304688 321.570312 258.132812 323.34375 C 257.941406 323.449219 257.746094 323.558594 257.554688 323.664062 C 257.640625 321.730469 257.582031 319.796875 257.402344 317.875 L 257.234375 316.339844 L 257.003906 314.820312 C 256.90625 314.3125 256.863281 313.804688 256.660156 313.316406 C 256.4375 312.824219 256.132812 312.347656 255.546875 311.921875 C 254.648438 313.054688 254.71875 314.023438 254.753906 315.015625 L 254.734375 317.980469 C 254.699219 319.949219 254.601562 321.910156 254.492188 323.867188 C 254.457031 324.367188 254.402344 324.863281 254.359375 325.363281 C 253.226562 325.949219 252.078125 326.511719 250.925781 327.058594 C 250.613281 327.207031 250.304688 327.359375 249.988281 327.507812 C 243.820312 330.417969 237.429688 332.84375 230.890625 334.796875 C 220.089844 337.980469 208.894531 339.742188 197.632812 340.28125 Z M 317.078125 247.875 C 317 247.246094 316.914062 246.621094 316.816406 245.996094 L 316.117188 242.304688 L 315.121094 238.683594 L 314.183594 236.007812 L 313.878906 235.140625 C 313.386719 233.992188 312.890625 232.84375 312.375 231.707031 L 310.601562 228.402344 L 308.59375 225.246094 C 307.839844 224.253906 307.128906 223.222656 306.289062 222.304688 C 305.371094 221.445312 304.386719 220.644531 303.214844 220.058594 C 303.597656 221.347656 304.164062 222.421875 304.800781 223.4375 C 305.367188 224.507812 306.058594 225.472656 306.710938 226.46875 L 308.449219 229.582031 L 309.953125 232.8125 C 310.371094 233.925781 310.808594 235.023438 311.246094 236.125 L 312.320312 239.511719 L 312.996094 242.285156 L 313.160156 242.964844 L 313.796875 246.453125 C 314.472656 251.109375 314.550781 255.851562 313.960938 260.511719 C 313.921875 260.621094 313.882812 260.730469 313.84375 260.839844 C 313.878906 259.691406 313.878906 258.542969 313.835938 257.394531 L 313.628906 254.097656 L 313.191406 250.828125 L 312.558594 247.589844 C 312.441406 247.128906 312.316406 246.664062 312.191406 246.203125 C 312.035156 245.605469 311.882812 245 311.71875 244.402344 L 310.660156 241.285156 L 309.414062 238.246094 C 308.925781 237.261719 308.492188 236.253906 307.90625 235.328125 C 307.253906 234.433594 306.53125 233.578125 305.570312 232.890625 C 305.609375 234.097656 305.878906 235.140625 306.222656 236.144531 C 306.511719 237.167969 306.945312 238.121094 307.332031 239.09375 L 308.335938 242.074219 L 309.148438 245.101562 C 309.351562 246.128906 309.582031 247.144531 309.808594 248.164062 L 310.300781 251.253906 L 310.539062 253.613281 L 310.617188 254.363281 L 310.78125 257.484375 C 310.875 261.644531 310.523438 265.820312 309.671875 269.894531 L 309.390625 271.0625 C 306.300781 276.953125 302.992188 281.40625 300.628906 284.230469 C 298.679688 286.558594 297.375 287.785156 297.375 287.785156 C 297.375 287.785156 301.226562 273.945312 297.796875 265.273438 C 297.734375 265.421875 297.667969 265.566406 297.605469 265.710938 C 297.257812 269.832031 294.664062 288.90625 276.101562 294.378906 C 276.109375 294.371094 276.121094 294.367188 276.132812 294.355469 C 277.269531 293.582031 278.332031 292.621094 278.960938 291.410156 C 277.953125 292.300781 276.78125 292.886719 275.605469 293.386719 C 274.417969 293.875 273.1875 294.226562 271.941406 294.496094 C 269.449219 295.035156 266.878906 295.25 264.296875 295.199219 C 259.347656 295.097656 254.421875 294.097656 249.59375 292.796875 C 249.378906 292.738281 249.167969 292.6875 248.957031 292.628906 C 240.160156 290.089844 231.617188 286.566406 223.34375 282.492188 C 222.285156 281.304688 221.324219 280.027344 220.441406 278.703125 C 219.582031 277.355469 218.761719 275.984375 218.023438 274.550781 C 217.660156 273.832031 217.308594 273.105469 216.96875 272.367188 C 216.660156 271.609375 216.40625 270.867188 215.199219 270.304688 C 214.789062 270.835938 214.667969 271.320312 214.625 271.78125 C 214.601562 272.238281 214.742188 272.652344 214.824219 273.085938 L 215.164062 274.355469 L 215.570312 275.605469 C 216.035156 276.917969 216.617188 278.191406 217.308594 279.402344 C 217.097656 279.296875 216.886719 279.1875 216.675781 279.074219 C 215.445312 277.925781 214.253906 276.742188 213.148438 275.515625 C 211.691406 273.863281 210.347656 272.148438 209.289062 270.273438 C 208.757812 269.335938 208.292969 268.363281 207.914062 267.355469 C 207.558594 266.320312 207.335938 265.339844 206.226562 264.28125 C 205.734375 264.890625 205.566406 265.53125 205.511719 266.15625 C 205.472656 266.785156 205.625 267.382812 205.746094 267.984375 C 206.011719 269.179688 206.402344 270.347656 206.898438 271.464844 C 207.398438 272.589844 207.992188 273.660156 208.660156 274.671875 C 203.726562 271.867188 198.863281 268.925781 194.0625 265.886719 C 194.039062 265.832031 194.011719 265.78125 193.992188 265.726562 C 193.753906 265.226562 193.523438 264.730469 193.242188 264.273438 C 192.96875 263.8125 192.699219 263.355469 192.398438 262.917969 C 192.101562 262.476562 191.839844 262.015625 191.558594 261.566406 C 190.476562 259.75 189.597656 257.832031 188.929688 255.851562 C 188.292969 253.890625 187.839844 251.875 187.601562 249.8125 C 187.601562 249.808594 187.601562 249.808594 187.601562 249.808594 C 187.597656 249.777344 187.589844 249.75 187.589844 249.722656 C 187.472656 248.671875 187.40625 247.613281 187.378906 246.542969 C 187.378906 246.324219 187.382812 246.105469 187.382812 245.886719 C 187.378906 245.035156 187.296875 244.175781 186.609375 243.175781 C 186.082031 243.589844 185.773438 244.054688 185.546875 244.539062 C 185.519531 244.597656 185.484375 244.65625 185.460938 244.71875 C 185.25 245.269531 185.21875 245.847656 185.125 246.414062 C 185.054688 246.988281 185.015625 247.5625 184.960938 248.140625 C 184.929688 248.71875 184.9375 249.300781 184.921875 249.882812 C 184.949219 252.207031 185.296875 254.558594 186.019531 256.789062 C 186.4375 258.140625 186.980469 259.445312 187.601562 260.710938 C 187.601562 260.710938 187.601562 260.710938 187.601562 260.714844 C 187.847656 261.226562 188.113281 261.726562 188.386719 262.222656 C 188.125 262.046875 187.859375 261.882812 187.601562 261.707031 C 180.527344 257.066406 173.570312 252.234375 166.703125 247.273438 C 166.171875 244.082031 165.792969 240.792969 165.5625 237.539062 C 165.472656 236.242188 165.421875 234.949219 165.382812 233.652344 C 165.324219 231.484375 165.339844 229.316406 165.472656 227.171875 C 165.664062 224.277344 166.054688 221.394531 166.847656 218.699219 C 166.992188 218.203125 167.144531 217.710938 167.320312 217.230469 C 168.378906 214.300781 170.160156 211.683594 172.75 210.554688 C 177.699219 211.855469 182.648438 213.128906 187.601562 214.386719 C 191.09375 215.277344 194.582031 216.160156 198.078125 217.027344 C 206.707031 219.179688 215.363281 221.226562 224.054688 223.152344 C 228.398438 224.113281 232.757812 225.039062 237.136719 225.878906 C 239.328125 226.300781 241.527344 226.6875 243.742188 227.035156 C 244.402344 227.136719 245.0625 227.230469 245.722656 227.320312 C 245.949219 227.367188 246.175781 227.410156 246.402344 227.457031 C 246.496094 227.476562 246.597656 227.484375 246.695312 227.480469 C 246.738281 227.476562 246.78125 227.464844 246.824219 227.460938 C 248.035156 227.605469 249.265625 227.710938 250.539062 227.722656 C 254.832031 227.726562 259.160156 228.53125 263.402344 229.628906 C 267.65625 230.722656 271.851562 232.140625 276.015625 233.726562 C 274.140625 232.507812 272.152344 231.476562 270.128906 230.523438 C 268.101562 229.570312 266.011719 228.742188 263.886719 228.011719 C 259.710938 226.632812 255.34375 225.644531 250.84375 225.5625 C 250.742188 225.5625 250.644531 225.554688 250.542969 225.554688 C 249.621094 225.53125 248.675781 225.445312 247.722656 225.332031 L 247.617188 223.328125 L 252.257812 211.492188 L 249.308594 213.097656 C 249.367188 212.964844 249.421875 212.832031 249.484375 212.703125 C 250.632812 210.347656 252.34375 208.210938 254.285156 206.332031 C 254.769531 205.875 255.265625 205.421875 255.773438 204.976562 C 257.351562 203.585938 259.019531 202.234375 260.679688 200.824219 C 261.777344 199.890625 262.867188 198.925781 263.910156 197.894531 C 264.425781 197.371094 264.972656 196.878906 265.390625 196.253906 C 265.800781 195.621094 266.128906 194.914062 266.207031 194.03125 C 264.492188 194.410156 263.507812 195.3125 262.417969 196.203125 C 262.214844 196.363281 262.007812 196.515625 261.800781 196.667969 C 260.894531 197.363281 259.96875 198.046875 259.03125 198.722656 C 257.90625 199.539062 256.765625 200.359375 255.636719 201.21875 C 261.742188 192.753906 269.679688 182.914062 275.242188 180.28125 C 275.242188 180.28125 252.082031 176.5 245.800781 183.71875 L 245.648438 183.304688 C 245.628906 182.867188 245.609375 182.429688 245.59375 181.992188 C 245.753906 181.777344 245.847656 181.546875 245.984375 181.328125 C 246.273438 180.828125 246.550781 180.335938 246.773438 179.828125 C 247.023438 179.324219 247.242188 178.816406 247.445312 178.296875 L 248.121094 176.777344 C 248.792969 175.34375 249.566406 173.957031 250.410156 172.617188 C 250.75 172.078125 251.097656 171.542969 251.460938 171.015625 C 252.746094 169.207031 254.136719 167.460938 255.660156 165.824219 L 256.828125 164.617188 L 258.035156 163.445312 C 258.484375 163.046875 258.933594 162.671875 259.316406 162.183594 C 259.457031 162.003906 259.585938 161.808594 259.707031 161.59375 C 264.648438 159.625 269.515625 159.1875 269.515625 159.1875 C 269.515625 159.1875 256.53125 153.164062 249.878906 152.757812 C 250.277344 152.09375 250.679688 151.433594 251.089844 150.777344 C 251.304688 150.4375 251.535156 150.097656 251.746094 149.757812 C 252.515625 148.550781 253.285156 147.351562 254.078125 146.152344 C 255.117188 144.628906 256.179688 143.140625 256.648438 141.121094 C 254.734375 141.945312 253.5 143.371094 252.292969 144.800781 C 251.070312 146.21875 249.902344 147.695312 248.78125 149.207031 C 248.757812 149.246094 248.726562 149.289062 248.699219 149.328125 C 246.527344 152.347656 244.523438 155.519531 243.171875 159.238281 C 243.023438 159.730469 242.855469 160.199219 242.730469 160.714844 L 242.578125 161.523438 L 242.492188 162.273438 C 242.386719 163.261719 242.339844 164.207031 242.308594 165.15625 C 242.246094 167.050781 242.234375 168.917969 242.257812 170.785156 C 242.289062 174.519531 242.398438 178.238281 242.539062 181.953125 C 242.601562 183.542969 242.667969 185.136719 242.738281 186.726562 L 242.738281 207.191406 L 229.511719 219.882812 C 229.144531 220.136719 228.78125 220.402344 228.453125 220.714844 C 228.21875 220.933594 228.011719 221.179688 227.808594 221.433594 C 226.746094 221.191406 225.675781 220.949219 224.613281 220.703125 C 215.976562 218.675781 207.371094 216.496094 198.765625 214.308594 C 198.386719 214.210938 198.011719 214.113281 197.632812 214.015625 L 197.632812 178.6875 C 202.96875 176.03125 207.484375 171.835938 210.496094 166.503906 C 221.949219 146.226562 245.390625 113.5 275.570312 117.964844 C 299.976562 121.578125 310.09375 138.019531 314.277344 151.691406 C 314.175781 151.515625 314.082031 151.328125 313.980469 151.152344 C 312.609375 148.746094 311.054688 146.449219 309.328125 144.289062 C 307.601562 142.132812 305.757812 140.074219 303.730469 138.203125 C 301.714844 136.324219 299.566406 134.589844 297.3125 133.015625 C 295.082031 131.429688 292.695312 129.96875 289.820312 129.601562 C 291.695312 131.78125 293.871094 133.214844 295.976562 134.824219 C 298.066406 136.445312 300.035156 138.214844 301.871094 140.101562 C 303.699219 142 305.445312 143.96875 307.015625 146.078125 C 308.585938 148.183594 310.03125 150.378906 311.320312 152.660156 C 313.886719 157.234375 315.828125 162.15625 317.054688 167.257812 C 317.074219 167.335938 317.089844 167.410156 317.105469 167.484375 C 317.246094 169.828125 317.195312 171.226562 317.195312 171.226562 C 317.195312 171.226562 307.566406 152.40625 298.789062 149.6875 C 298.789062 149.6875 307.953125 164.902344 313.460938 181.832031 L 312.914062 180.683594 C 312.328125 179.605469 311.738281 178.53125 311.128906 177.472656 L 309.140625 174.386719 L 306.976562 171.425781 C 306.191406 170.492188 305.445312 169.519531 304.574219 168.660156 C 303.648438 167.851562 302.65625 167.101562 301.476562 166.566406 C 301.882812 167.828125 302.480469 168.871094 303.136719 169.855469 C 303.742188 170.886719 304.476562 171.800781 305.164062 172.757812 L 307.078125 175.714844 L 308.8125 178.785156 C 309.324219 179.839844 309.859375 180.882812 310.394531 181.925781 L 311.800781 185.140625 L 313.03125 188.429688 L 314.109375 191.769531 C 315.410156 196.261719 316.242188 200.890625 316.527344 205.558594 L 316.613281 208.050781 C 314.164062 207.019531 304.347656 203.355469 292.84375 205.527344 C 292.84375 205.527344 309.347656 212.714844 315.472656 228.515625 C 317.257812 233.121094 318.160156 238.457031 317.515625 244.5625 C 317.394531 245.6875 317.242188 246.789062 317.078125 247.875 Z M 284.898438 79.398438 C 284.902344 79.398438 284.90625 79.402344 284.90625 79.402344 C 286.429688 80.160156 287.921875 80.914062 289.378906 81.664062 C 291.011719 82.507812 292.597656 83.34375 294.136719 84.167969 C 295.3125 84.800781 296.460938 85.425781 297.585938 86.042969 C 314.453125 95.359375 324.839844 103.035156 324.839844 103.035156 C 324.839844 103.035156 324.839844 125.796875 323.027344 156.105469 C 322.261719 152.253906 321.113281 147.972656 319.398438 143.605469 C 311.679688 123.964844 296.542969 111.917969 275.621094 108.773438 C 273.339844 108.429688 271.019531 108.257812 268.730469 108.257812 C 262.386719 108.257812 256.382812 109.53125 250.726562 111.765625 C 251.003906 111.546875 251.277344 111.324219 251.554688 111.109375 L 253.628906 109.515625 C 254.414062 106.507812 254.339844 103.347656 253.425781 100.386719 C 249.375 87.296875 245.015625 73.015625 241.773438 62.113281 C 257.730469 66.949219 272.4375 73.222656 284.898438 79.398438 Z M 330.859375 94.890625 C 328.695312 93.296875 289.128906 64.40625 238.410156 50.582031 C 237.738281 48.191406 237.25 46.371094 236.996094 45.277344 C 236.589844 43.507812 235.652344 41.40625 234.320312 39.109375 C 226.375 25.367188 203.898438 4.226562 189.617188 0.273438 C 188.957031 0.0898438 188.28125 0 187.601562 0 C 186.921875 0 186.246094 0.0898438 185.585938 0.273438 C 171.304688 4.226562 148.828125 25.367188 140.882812 39.109375 C 139.546875 41.40625 138.613281 43.507812 138.203125 45.277344 C 137.949219 46.371094 137.460938 48.191406 136.789062 50.582031 C 86.070312 64.410156 46.503906 93.296875 44.339844 94.890625 C 41.761719 96.800781 40.234375 99.824219 40.234375 103.035156 C 40.234375 106.992188 40.390625 174.003906 49.953125 231.367188 C 49.992188 237.730469 50.121094 242.859375 50.402344 245.527344 C 51.894531 259.832031 56.898438 271.433594 61.828125 279.757812 C 63.597656 284.589844 65.515625 289.042969 67.589844 293.019531 C 95.742188 346.957031 182.039062 363.996094 185.699219 364.695312 C 186.328125 364.816406 186.96875 364.875 187.601562 364.875 C 188.234375 364.875 188.875 364.816406 189.5 364.695312 C 193.160156 363.996094 279.460938 346.957031 307.613281 293.015625 C 309.703125 289.011719 311.628906 284.523438 313.414062 279.648438 C 318.335938 271.339844 323.3125 259.777344 324.800781 245.527344 C 325.078125 242.859375 325.210938 237.730469 325.25 231.367188 C 334.8125 174.003906 334.964844 106.992188 334.964844 103.035156 C 334.964844 99.824219 333.441406 96.800781 330.859375 94.890625 "/>
</g>
</svg>
